<svg xmlns="http://www.w3.org/2000/svg" xmlns:xlink="http://www.w3.org/1999/xlink" width="3456" zoomAndPan="magnify" viewBox="0 0 2592 1727.999927" height="2304" preserveAspectRatio="xMidYMid meet" version="1.0"><defs><filter x="0%" y="0%" width="100%" height="100%" id="28e4365770"><feColorMatrix values="0 0 0 0 1 0 0 0 0 1 0 0 0 0 1 0 0 0 1 0" color-interpolation-filters="sRGB"/></filter><mask id="64e152203d"><g filter="url(#28e4365770)"><rect x="-259.2" width="3110.4" fill="#000000" y="-172.799993" height="2073.599912" fill-opacity="0.8"/></g></mask><clipPath id="7778c55904"><path d="M 0 0 L 1852.5 0 L 1852.5 1728 L 0 1728 Z M 0 0 " clip-rule="nonzero"/></clipPath><clipPath id="70153b201c"><rect x="0" width="1853" y="0" height="1728"/></clipPath><clipPath id="5ad1fe2a72"><path d="M 2000.160156 1070 L 2419.410156 1070 L 2419.410156 1278 L 2000.160156 1278 Z M 2000.160156 1070 " clip-rule="nonzero"/></clipPath></defs><g mask="url(#64e152203d)"><g transform="matrix(1, 0, 0, 1, 0, 0)"><g clip-path="url(#70153b201c)"><g clip-path="url(#7778c55904)"><path fill="#c39252" d="M 1839.964844 -24.773438 L 1839.964844 699.5 C 1839.964844 935.050781 1734.316406 1152.511719 1549.640625 1298.15625 L 1549.640625 1259.960938 C 1716.210938 1119.980469 1811.695312 915.253906 1811.695312 697.777344 L 1811.695312 -24.773438 L 1799.207031 -24.773438 L 1799.207031 697.777344 C 1799.207031 908.035156 1708.414062 1106.160156 1549.640625 1243.542969 L 1549.640625 1203.855469 C 1583.160156 1172.679688 1613.703125 1138.097656 1640.445312 1101.003906 C 1667.957031 1062.84375 1691.613281 1021.785156 1710.773438 978.972656 C 1730.289062 935.367188 1745.289062 889.585938 1755.359375 842.902344 C 1765.699219 794.957031 1770.941406 745.550781 1770.941406 696.054688 L 1770.941406 -24.773438 L 1758.457031 -24.773438 L 1758.457031 696.054688 C 1758.457031 880.757812 1682.519531 1058.722656 1549.640625 1186.664062 L 1549.640625 1144.910156 C 1606.085938 1085.808594 1650.402344 1017.695312 1681.371094 942.417969 C 1713.765625 863.675781 1730.183594 780.210938 1730.183594 694.328125 L 1730.183594 -24.773438 L 1717.699219 -24.773438 L 1717.699219 694.328125 C 1717.699219 855.433594 1658.132812 1008.332031 1549.640625 1126.644531 L 1549.640625 1081.863281 C 1593.675781 1028.527344 1628.078125 968.742188 1651.890625 904.105469 C 1676.800781 836.488281 1689.433594 765.332031 1689.433594 692.605469 L 1689.433594 -24.773438 L 1676.945312 -24.773438 L 1676.945312 692.605469 C 1676.945312 826.476562 1631.855469 956.921875 1549.640625 1061.933594 L 1549.640625 1028.496094 C 1549.640625 1023.214844 1549.582031 1017.882812 1549.472656 1012.621094 C 1614.378906 917.625 1648.679688 806.421875 1648.679688 690.882812 L 1648.679688 -24.773438 L 1636.195312 -24.773438 L 1636.195312 690.882812 C 1636.195312 798.066406 1606.019531 901.429688 1548.746094 991.066406 C 1548.652344 989.0625 1548.546875 987.066406 1548.441406 985.078125 L 1548.429688 984.90625 C 1547.609375 970.171875 1546.347656 955.230469 1544.6875 940.476562 C 1564.921875 902.953125 1580.570312 863.054688 1591.183594 821.855469 C 1602.292969 778.75 1607.921875 734.109375 1607.921875 689.167969 L 1607.921875 -24.773438 L 1595.4375 -24.773438 L 1595.4375 689.160156 C 1595.4375 768.828125 1576.96875 847.746094 1541.902344 918.65625 C 1539.46875 901.535156 1536.464844 884.464844 1532.917969 867.664062 C 1555.644531 810.316406 1567.171875 749.691406 1567.171875 687.4375 L 1567.171875 -24.773438 L 1554.683594 -24.773438 L 1554.683594 687.4375 C 1554.683594 741.773438 1545.667969 794.839844 1527.878906 845.46875 C 1523.648438 828.011719 1518.789062 810.628906 1513.363281 793.558594 C 1522.019531 758.46875 1526.417969 722.195312 1526.417969 685.714844 L 1526.417969 -24.773438 L 1513.933594 -24.773438 L 1513.933594 685.714844 C 1513.933594 714.316406 1511.148438 742.773438 1505.667969 770.605469 C 1499.234375 752.402344 1492.113281 734.355469 1484.355469 716.742188 C 1485.21875 705.910156 1485.660156 694.902344 1485.660156 683.992188 L 1485.660156 -24.773438 L 1473.175781 -24.773438 L 1473.175781 683.992188 C 1473.175781 686.757812 1473.144531 689.523438 1473.085938 692.292969 C 1414.109375 569.964844 1323.992188 465.191406 1211.234375 388.195312 C 1088.652344 304.488281 945.25 258.085938 796.527344 253.996094 C 789.347656 253.796875 782.042969 253.695312 774.820312 253.695312 C 768.453125 253.695312 761.933594 253.777344 755.441406 253.933594 C 741.628906 254.277344 727.804688 254.976562 714.363281 256.027344 C 703.585938 256.851562 692.773438 257.921875 682.097656 259.203125 L 682.097656 -24.773438 L 669.609375 -24.773438 L 669.609375 683.992188 C 669.609375 789.167969 709.523438 889.042969 782 965.207031 C 854.214844 1041.097656 951.4375 1085.933594 1055.773438 1091.4375 C 1063.054688 1091.820312 1070.410156 1092.011719 1077.640625 1092.011719 C 1084.195312 1092.011719 1090.761719 1091.855469 1097.15625 1091.550781 C 1110.992188 1090.902344 1124.921875 1089.539062 1138.539062 1087.492188 C 1149.175781 1085.90625 1159.847656 1083.867188 1170.363281 1081.417969 L 1170.363281 1112.117188 C 1159.28125 1114.515625 1148.011719 1116.496094 1136.777344 1118.011719 C 1123.515625 1119.808594 1110 1121.007812 1096.59375 1121.582031 C 1090.324219 1121.851562 1083.949219 1121.988281 1077.640625 1121.988281 C 1070.597656 1121.988281 1063.453125 1121.8125 1056.40625 1121.476562 C 823.664062 1110.332031 641.34375 918.917969 641.34375 685.699219 L 641.34375 -24.773438 L 628.859375 -24.773438 L 628.859375 685.714844 C 628.859375 801.789062 673.011719 911.898438 753.1875 995.769531 C 792.183594 1036.570312 837.8125 1069.261719 888.800781 1092.945312 C 941.402344 1117.375 997.589844 1131.171875 1055.804688 1133.964844 C 1063.054688 1134.3125 1070.402344 1134.488281 1077.640625 1134.488281 C 1084.132812 1134.488281 1090.6875 1134.34375 1097.132812 1134.070312 C 1110.910156 1133.484375 1124.816406 1132.246094 1138.449219 1130.398438 C 1149.113281 1128.957031 1159.816406 1127.101562 1170.363281 1124.890625 L 1170.363281 1155.480469 C 1159.285156 1157.664062 1148.035156 1159.460938 1136.847656 1160.84375 C 1123.578125 1162.492188 1110.042969 1163.589844 1096.613281 1164.109375 C 1083.527344 1164.632812 1069.703125 1164.601562 1056.378906 1164.019531 C 800.800781 1152.808594 600.59375 943.46875 600.59375 687.4375 L 600.59375 -24.773438 L 588.105469 -24.773438 L 588.105469 687.4375 C 588.105469 814.398438 636.5 934.75 724.378906 1026.332031 C 767.121094 1070.878906 817.113281 1106.515625 872.957031 1132.253906 C 930.585938 1158.8125 992.113281 1173.699219 1055.835938 1176.496094 C 1063.027344 1176.808594 1070.363281 1176.96875 1077.644531 1176.96875 C 1084.199219 1176.96875 1090.75 1176.839844 1097.113281 1176.582031 C 1110.886719 1176.050781 1124.777344 1174.921875 1138.386719 1173.230469 C 1149.058594 1171.914062 1159.785156 1170.21875 1170.375 1168.183594 L 1170.375 1198.664062 C 1159.347656 1200.664062 1148.117188 1202.320312 1136.921875 1203.597656 C 1123.574219 1205.109375 1110.023438 1206.121094 1096.644531 1206.601562 C 1090.320312 1206.832031 1083.925781 1206.945312 1077.644531 1206.945312 C 1070.488281 1206.945312 1063.335938 1206.800781 1056.359375 1206.515625 C 787.792969 1195.664062 569.851562 976.738281 560.191406 708.097656 C 559.960938 701.953125 559.847656 695.570312 559.847656 689.148438 L 559.847656 -24.773438 L 547.359375 -24.773438 L 547.359375 689.160156 C 547.359375 695.742188 547.480469 702.273438 547.714844 708.566406 C 552.523438 842.339844 607.28125 968.335938 701.886719 1063.34375 C 796.472656 1158.320312 922.179688 1213.605469 1055.855469 1219 C 1062.992188 1219.292969 1070.320312 1219.445312 1077.644531 1219.445312 C 1084.074219 1219.445312 1090.617188 1219.324219 1097.09375 1219.089844 C 1110.785156 1218.59375 1124.660156 1217.558594 1138.332031 1216.011719 C 1149.046875 1214.785156 1159.792969 1213.21875 1170.367188 1211.347656 L 1170.367188 1241.765625 C 1159.328125 1243.613281 1148.117188 1245.144531 1136.964844 1246.308594 C 1123.648438 1247.722656 1110.085938 1248.65625 1096.65625 1249.109375 C 1090.4375 1249.320312 1084.039062 1249.425781 1077.644531 1249.425781 C 1070.652344 1249.425781 1063.484375 1249.296875 1056.339844 1249.03125 C 774.234375 1238.457031 544.078125 1018.425781 520.980469 737.222656 C 519.71875 721.882812 519.082031 706.292969 519.082031 690.878906 L 519.082031 -24.773438 L 506.597656 -24.773438 L 506.597656 690.882812 C 506.597656 706.636719 507.246094 722.574219 508.53125 738.253906 C 519.917969 876.898438 581.6875 1006.46875 682.453125 1103.101562 C 783.523438 1200.027344 916.136719 1256.289062 1055.875 1261.527344 C 1063.171875 1261.792969 1070.488281 1261.933594 1077.636719 1261.933594 C 1084.175781 1261.933594 1090.710938 1261.820312 1097.070312 1261.601562 C 1110.792969 1261.144531 1124.652344 1260.183594 1138.261719 1258.742188 C 1148.972656 1257.617188 1159.734375 1256.167969 1170.363281 1254.425781 L 1170.363281 1284.777344 C 1159.378906 1286.488281 1148.179688 1287.90625 1137.003906 1289.003906 C 1123.652344 1290.320312 1110.082031 1291.203125 1096.667969 1291.621094 C 1090.382812 1291.820312 1083.980469 1291.917969 1077.636719 1291.917969 C 1070.539062 1291.917969 1063.367188 1291.792969 1056.324219 1291.550781 C 763.394531 1281.3125 522.5625 1063.21875 483.667969 772.972656 C 481.273438 755.0625 479.660156 736.804688 478.894531 718.710938 C 478.519531 710.152344 478.332031 701.371094 478.332031 692.617188 L 478.332031 -24.773438 L 465.84375 -24.773438 L 465.84375 692.605469 C 465.84375 701.542969 466.039062 710.5 466.417969 719.234375 C 467.207031 737.699219 468.847656 756.335938 471.296875 774.617188 C 480.910156 846.371094 502.992188 915.164062 536.925781 979.085938 C 570.023438 1041.429688 613.34375 1097.21875 665.667969 1144.910156 C 718.210938 1192.789062 778.003906 1230.820312 843.375 1257.941406 C 910.878906 1285.945312 982.378906 1301.449219 1055.878906 1304.019531 C 1063.066406 1304.269531 1070.382812 1304.402344 1077.632812 1304.402344 C 1084.101562 1304.402344 1090.636719 1304.300781 1097.050781 1304.09375 C 1110.742188 1303.671875 1124.589844 1302.769531 1138.21875 1301.429688 C 1148.976562 1300.375 1159.753906 1299.023438 1170.355469 1297.40625 L 1170.355469 1327.722656 C 1159.265625 1329.332031 1148.085938 1330.660156 1137.035156 1331.671875 C 1123.699219 1332.902344 1110.117188 1333.722656 1096.667969 1334.109375 C 1083.515625 1334.507812 1069.714844 1334.484375 1056.304688 1334.039062 C 760.664062 1324.363281 505.464844 1106.859375 449.273438 816.765625 L 449.160156 816.171875 C 445.523438 797.300781 442.699219 777.960938 440.769531 758.699219 C 438.855469 739.539062 437.785156 719.960938 437.605469 700.503906 C 437.585938 698.449219 437.574219 696.390625 437.574219 694.328125 L 437.574219 -24.773438 L 425.085938 -24.773438 L 425.085938 694.328125 C 425.085938 696.425781 425.097656 698.527344 425.117188 700.617188 C 425.304688 720.453125 426.390625 740.414062 428.347656 759.945312 C 430.289062 779.378906 433.128906 798.890625 436.789062 817.953125 L 436.898438 818.546875 C 450.855469 890.945312 476.859375 959.976562 514.195312 1023.703125 C 550.757812 1086.113281 597.148438 1141.738281 652.078125 1189.039062 C 707.359375 1236.632812 769.617188 1274.34375 837.125 1301.128906 C 906.832031 1328.78125 980.4375 1344.054688 1055.890625 1346.527344 C 1063.085938 1346.761719 1070.394531 1346.886719 1077.632812 1346.886719 C 1084.15625 1346.886719 1090.6875 1346.789062 1097.039062 1346.601562 C 1110.742188 1346.207031 1124.585938 1345.371094 1138.183594 1344.117188 C 1148.851562 1343.136719 1159.640625 1341.867188 1170.355469 1340.339844 L 1170.355469 1370.601562 C 1159.386719 1372.101562 1148.214844 1373.347656 1137.070312 1374.308594 C 1123.640625 1375.472656 1110.054688 1376.246094 1096.683594 1376.609375 C 1083.632812 1376.976562 1069.898438 1376.964844 1056.292969 1376.546875 C 756.484375 1367.316406 494.316406 1158.257812 418.753906 868.15625 C 413.492188 847.972656 409.117188 827.261719 405.746094 806.59375 C 402.421875 786.273438 400.007812 765.523438 398.546875 744.933594 L 398.53125 744.710938 C 397.398438 728.65625 396.816406 712.292969 396.816406 696.066406 L 396.816406 -24.773438 L 384.328125 -24.773438 L 384.328125 696.054688 C 384.328125 712.5 384.910156 729.085938 386.058594 745.359375 L 386.070312 745.582031 C 387.558594 766.628906 390.023438 787.828125 393.417969 808.597656 C 396.851562 829.648438 401.3125 850.742188 406.667969 871.296875 C 425.394531 943.179688 455.492188 1011.289062 496.144531 1073.75 C 536.128906 1135.179688 585.351562 1189.699219 642.457031 1235.796875 C 700.046875 1282.292969 764.21875 1319.042969 833.183594 1345.035156 C 904.386719 1371.863281 979.320312 1386.664062 1055.90625 1389.019531 C 1063.148438 1389.238281 1070.457031 1389.351562 1077.632812 1389.351562 C 1084.167969 1389.351562 1090.695312 1389.257812 1097.023438 1389.082031 C 1110.636719 1388.714844 1124.472656 1387.925781 1138.144531 1386.746094 C 1148.921875 1385.816406 1159.722656 1384.625 1170.355469 1383.195312 L 1170.355469 1413.417969 C 1159.3125 1414.84375 1148.160156 1416.03125 1137.097656 1416.921875 C 1123.804688 1418.015625 1110.210938 1418.746094 1096.6875 1419.09375 C 1090.464844 1419.257812 1084.050781 1419.34375 1077.625 1419.34375 C 1070.589844 1419.34375 1063.402344 1419.238281 1056.273438 1419.03125 C 757.445312 1410.347656 491.78125 1214.601562 394.863281 931.816406 L 394.523438 930.828125 C 387.039062 908.890625 380.546875 886.3125 375.230469 863.722656 C 370.113281 841.984375 365.972656 819.75 362.914062 797.636719 L 362.859375 797.203125 C 359.84375 775.339844 357.804688 753.011719 356.808594 730.855469 C 356.308594 719.984375 356.058594 708.851562 356.058594 697.769531 L 356.058594 -24.773438 L 343.570312 -24.773438 L 343.570312 697.777344 C 343.570312 709.046875 343.828125 720.371094 344.332031 731.429688 C 345.34375 753.824219 347.390625 776.382812 350.425781 798.492188 L 350.484375 798.921875 C 353.597656 821.5625 357.835938 844.324219 363.074219 866.589844 C 368.402344 889.234375 374.894531 911.867188 382.367188 933.890625 L 382.707031 934.875 C 406.542969 1004.757812 440.808594 1070.546875 484.542969 1130.40625 C 527.769531 1189.5625 579.429688 1241.828125 638.078125 1285.746094 C 697.375 1330.144531 762.703125 1365.15625 832.234375 1389.820312 C 903.992188 1415.261719 979.246094 1429.296875 1055.910156 1431.527344 C 1063.160156 1431.730469 1070.472656 1431.839844 1077.625 1431.839844 C 1084.15625 1431.839844 1090.683594 1431.75 1097.011719 1431.589844 C 1110.761719 1431.234375 1124.589844 1430.488281 1138.109375 1429.378906 C 1148.820312 1428.511719 1159.636719 1427.386719 1170.351562 1426.03125 L 1170.351562 1456.230469 C 1159.359375 1457.566406 1148.214844 1458.683594 1137.117188 1459.539062 C 1123.890625 1460.570312 1110.285156 1461.265625 1096.695312 1461.59375 C 1090.308594 1461.75 1083.890625 1461.832031 1077.621094 1461.832031 C 1070.507812 1461.832031 1063.324219 1461.730469 1056.253906 1461.53125 C 764.417969 1453.507812 499.378906 1275.863281 380.675781 1008.867188 L 380.140625 1007.65625 C 369.300781 983.164062 359.667969 957.820312 351.5 932.335938 C 343.863281 908.496094 337.347656 884.023438 332.125 859.597656 C 327.105469 836.097656 323.15625 812.019531 320.375 788.050781 C 318.632812 772.96875 317.328125 757.671875 316.492188 742.585938 L 316.480469 742.40625 C 316.011719 734.039062 315.679688 725.535156 315.492188 717.113281 C 315.355469 711.292969 315.289062 705.367188 315.289062 699.511719 L 315.289062 -24.773438 L 302.800781 -24.773438 L 302.800781 414.03125 C 257.464844 448.902344 215.914062 488.839844 179.289062 532.796875 C 141.796875 577.789062 109.417969 627.019531 83.050781 679.113281 C 56.203125 732.160156 35.53125 788.320312 21.597656 846.042969 C 7.261719 905.4375 -0.0117188 966.824219 -0.0117188 1028.496094 L -0.0117188 1752.769531 L 12.476562 1752.769531 L 12.476562 1028.496094 C 12.476562 792.945312 118.121094 575.484375 302.800781 429.839844 L 302.800781 468.039062 C 136.230469 608.019531 40.746094 812.746094 40.746094 1030.222656 L 40.746094 1752.769531 L 53.234375 1752.769531 L 53.234375 1030.222656 C 53.234375 819.960938 144.027344 621.835938 302.800781 484.453125 L 302.800781 524.144531 C 269.277344 555.316406 238.734375 589.898438 211.996094 626.992188 C 184.484375 665.152344 160.828125 706.210938 141.667969 749.023438 C 122.148438 792.628906 107.152344 838.414062 97.082031 885.09375 C 86.742188 933.039062 81.496094 982.445312 81.496094 1031.945312 L 81.496094 1752.769531 L 93.984375 1752.769531 L 93.984375 1031.945312 C 93.984375 847.242188 169.917969 669.273438 302.800781 541.335938 L 302.800781 583.09375 C 246.351562 642.195312 202.035156 710.308594 171.066406 785.585938 C 138.675781 864.328125 122.253906 947.792969 122.253906 1033.671875 L 122.253906 1752.769531 L 134.742188 1752.769531 L 134.742188 1033.667969 C 134.742188 872.566406 194.304688 719.667969 302.800781 601.351562 L 302.800781 646.136719 C 258.765625 699.46875 224.363281 759.257812 200.550781 823.890625 C 175.636719 891.507812 163.007812 962.664062 163.007812 1035.390625 L 163.007812 1752.769531 L 175.496094 1752.769531 L 175.496094 1035.390625 C 175.496094 901.523438 220.585938 771.074219 302.800781 666.066406 L 302.800781 699.5 C 302.800781 704.78125 302.855469 710.113281 302.96875 715.375 C 238.0625 810.371094 203.757812 921.578125 203.757812 1037.113281 L 203.757812 1752.769531 L 216.246094 1752.769531 L 216.246094 1037.113281 C 216.246094 929.929688 246.421875 826.570312 303.695312 736.929688 C 303.789062 738.933594 303.894531 740.933594 304 742.917969 L 304.011719 743.09375 C 304.828125 757.832031 306.089844 772.769531 307.75 787.519531 C 287.515625 825.046875 271.871094 864.941406 261.257812 906.144531 C 250.148438 949.25 244.515625 993.890625 244.515625 1038.832031 L 244.515625 1752.769531 L 257.003906 1752.769531 L 257.003906 1038.835938 C 257.003906 959.167969 275.472656 880.25 310.535156 809.335938 C 312.972656 826.457031 315.976562 843.527344 319.519531 860.328125 C 296.792969 917.675781 285.269531 978.300781 285.269531 1040.554688 L 285.269531 1752.769531 L 297.757812 1752.769531 L 297.757812 1040.558594 C 297.757812 986.222656 306.773438 933.160156 324.558594 882.53125 C 328.792969 899.988281 333.648438 917.367188 339.074219 934.4375 C 330.421875 969.527344 326.019531 1005.796875 326.019531 1042.285156 L 326.019531 1752.769531 L 338.507812 1752.769531 L 338.507812 1042.285156 C 338.507812 1013.683594 341.292969 985.222656 346.773438 957.390625 C 353.203125 975.597656 360.328125 993.640625 368.082031 1011.253906 C 367.222656 1022.085938 366.777344 1033.09375 366.777344 1044.007812 L 366.777344 1752.769531 L 379.265625 1752.769531 L 379.265625 1044.007812 C 379.265625 1041.246094 379.296875 1038.476562 379.351562 1035.703125 C 438.328125 1158.03125 528.449219 1262.804688 641.207031 1339.800781 C 763.789062 1423.507812 907.191406 1469.910156 1055.910156 1474 C 1063.089844 1474.199219 1070.398438 1474.300781 1077.621094 1474.300781 C 1083.988281 1474.300781 1090.507812 1474.21875 1097 1474.0625 C 1110.816406 1473.71875 1124.640625 1473.019531 1138.078125 1471.972656 C 1148.847656 1471.148438 1159.667969 1470.074219 1170.34375 1468.792969 L 1170.34375 1752.761719 L 1182.832031 1752.761719 L 1182.832031 1044.007812 C 1182.832031 938.828125 1142.914062 838.957031 1070.441406 762.789062 C 998.226562 686.898438 901.003906 642.066406 796.667969 636.558594 C 789.378906 636.175781 782.027344 635.984375 774.800781 635.984375 C 768.238281 635.984375 761.671875 636.140625 755.285156 636.445312 C 741.449219 637.089844 727.523438 638.457031 713.902344 640.503906 C 703.261719 642.089844 692.59375 644.132812 682.078125 646.578125 L 682.078125 615.878906 C 693.15625 613.480469 704.429688 611.503906 715.664062 609.984375 C 728.925781 608.1875 742.441406 606.988281 755.847656 606.414062 C 762.101562 606.144531 768.484375 606.007812 774.800781 606.007812 C 781.851562 606.007812 788.992188 606.183594 796.035156 606.519531 C 1028.777344 617.664062 1211.09375 809.082031 1211.09375 1042.296875 L 1211.09375 1752.769531 L 1223.582031 1752.769531 L 1223.582031 1042.285156 C 1223.582031 926.210938 1179.429688 816.097656 1099.253906 732.226562 C 1060.257812 691.433594 1014.628906 658.734375 963.636719 635.054688 C 911.035156 610.621094 854.851562 596.824219 796.636719 594.035156 C 789.394531 593.683594 782.042969 593.507812 774.800781 593.507812 C 768.300781 593.507812 761.746094 593.652344 755.308594 593.925781 C 741.523438 594.515625 727.625 595.75 713.984375 597.597656 C 703.320312 599.039062 692.617188 600.894531 682.070312 603.105469 L 682.070312 572.519531 C 693.15625 570.332031 704.398438 568.535156 715.585938 567.15625 C 728.863281 565.507812 742.398438 564.40625 755.820312 563.890625 C 768.953125 563.363281 782.742188 563.394531 796.054688 563.976562 C 1051.636719 575.191406 1251.839844 784.53125 1251.839844 1040.558594 L 1251.839844 1752.769531 L 1264.328125 1752.769531 L 1264.328125 1040.558594 C 1264.328125 913.597656 1215.933594 793.246094 1128.054688 701.664062 C 1085.3125 657.117188 1035.320312 621.480469 979.476562 595.742188 C 921.851562 569.183594 860.320312 554.300781 796.597656 551.503906 C 782.9375 550.902344 768.78125 550.871094 755.328125 551.414062 C 741.5625 551.945312 727.667969 553.074219 714.050781 554.765625 C 703.382812 556.085938 692.660156 557.777344 682.066406 559.8125 L 682.066406 529.332031 C 693.097656 527.332031 704.324219 525.679688 715.519531 524.398438 C 728.867188 522.886719 742.417969 521.875 755.789062 521.394531 C 762.128906 521.164062 768.515625 521.050781 774.789062 521.050781 C 781.933594 521.050781 789.09375 521.195312 796.074219 521.484375 C 1064.640625 532.335938 1282.585938 751.257812 1292.242188 1019.898438 C 1292.472656 1026.050781 1292.585938 1032.425781 1292.585938 1038.847656 L 1292.585938 1752.769531 L 1305.074219 1752.769531 L 1305.074219 1038.835938 C 1305.074219 1032.257812 1304.953125 1025.726562 1304.71875 1019.433594 C 1299.910156 885.65625 1245.152344 759.664062 1150.546875 664.652344 C 1055.960938 569.675781 930.253906 514.390625 796.578125 508.988281 C 789.4375 508.695312 782.101562 508.546875 774.789062 508.546875 C 768.371094 508.546875 761.820312 508.664062 755.339844 508.902344 C 741.640625 509.394531 727.773438 510.433594 714.101562 511.980469 C 703.386719 513.203125 692.640625 514.769531 682.066406 516.644531 L 682.066406 486.21875 C 693.105469 484.371094 704.3125 482.847656 715.46875 481.675781 C 728.792969 480.261719 742.355469 479.320312 755.777344 478.875 C 761.996094 478.664062 768.390625 478.558594 774.789062 478.558594 C 781.78125 478.558594 788.949219 478.691406 796.09375 478.953125 C 1078.199219 489.527344 1308.359375 709.558594 1331.453125 990.761719 C 1332.714844 1006.101562 1333.351562 1021.691406 1333.351562 1037.109375 L 1333.351562 1752.769531 L 1345.835938 1752.769531 L 1345.835938 1037.113281 C 1345.835938 1021.363281 1345.1875 1005.421875 1343.902344 989.742188 C 1332.515625 851.097656 1270.746094 721.527344 1169.980469 624.902344 C 1068.910156 527.976562 936.296875 471.714844 796.558594 466.476562 C 789.261719 466.207031 781.945312 466.070312 774.796875 466.070312 C 768.257812 466.070312 761.714844 466.183594 755.367188 466.402344 C 741.648438 466.859375 727.78125 467.820312 714.171875 469.261719 C 703.457031 470.386719 692.699219 471.835938 682.070312 473.574219 L 682.070312 443.226562 C 693.0625 441.515625 704.253906 440.097656 715.429688 439 C 728.78125 437.683594 742.347656 436.800781 755.765625 436.382812 C 762.050781 436.183594 768.457031 436.082031 774.796875 436.082031 C 781.894531 436.082031 789.066406 436.207031 796.109375 436.453125 C 1089.039062 446.691406 1329.871094 664.785156 1368.765625 955.03125 C 1371.160156 972.941406 1372.773438 991.199219 1373.539062 1009.292969 C 1373.914062 1017.851562 1374.101562 1026.632812 1374.101562 1035.382812 L 1374.101562 1752.769531 L 1386.589844 1752.769531 L 1386.589844 1035.390625 C 1386.589844 1026.457031 1386.394531 1017.496094 1386.015625 1008.761719 C 1385.226562 990.300781 1383.585938 971.664062 1381.136719 953.382812 C 1371.523438 881.625 1349.441406 812.832031 1315.507812 748.910156 C 1282.410156 686.570312 1239.089844 630.777344 1186.765625 583.089844 C 1134.222656 535.207031 1074.429688 497.175781 1009.058594 470.054688 C 941.554688 442.050781 870.054688 426.550781 796.554688 423.976562 C 789.359375 423.726562 782.042969 423.597656 774.800781 423.597656 C 768.332031 423.597656 761.800781 423.695312 755.382812 423.894531 C 741.691406 424.320312 727.835938 425.21875 714.214844 426.5625 C 703.457031 427.617188 692.679688 428.964844 682.078125 430.582031 L 682.078125 400.269531 C 693.167969 398.660156 704.347656 397.328125 715.398438 396.320312 C 728.730469 395.089844 742.308594 394.269531 755.765625 393.882812 C 768.925781 393.484375 782.742188 393.507812 796.128906 393.953125 C 1091.769531 403.628906 1346.96875 621.128906 1403.160156 911.226562 L 1403.273438 911.816406 C 1406.910156 930.691406 1409.734375 950.027344 1411.664062 969.289062 C 1413.578125 988.453125 1414.648438 1008.03125 1414.828125 1027.488281 C 1414.847656 1029.539062 1414.859375 1031.601562 1414.859375 1033.660156 L 1414.859375 1752.769531 L 1427.347656 1752.769531 L 1427.347656 1033.667969 C 1427.347656 1031.570312 1427.335938 1029.472656 1427.316406 1027.375 C 1427.128906 1007.539062 1426.042969 987.578125 1424.089844 968.046875 C 1422.144531 948.613281 1419.304688 929.101562 1415.648438 910.039062 L 1415.535156 909.445312 C 1401.578125 837.046875 1375.574219 768.015625 1338.238281 704.289062 C 1301.675781 641.878906 1255.285156 586.253906 1200.355469 538.953125 C 1145.074219 491.359375 1082.816406 453.648438 1015.308594 426.867188 C 945.601562 399.214844 871.996094 383.945312 796.542969 381.472656 C 782.898438 381.015625 768.800781 380.996094 755.394531 381.402344 C 741.683594 381.796875 727.84375 382.632812 714.25 383.886719 C 703.582031 384.867188 692.792969 386.136719 682.078125 387.664062 L 682.078125 357.402344 C 693.042969 355.902344 704.210938 354.65625 715.363281 353.695312 C 728.792969 352.53125 742.378906 351.757812 755.753906 351.394531 C 761.976562 351.222656 768.390625 351.128906 774.800781 351.128906 C 781.84375 351.128906 789.023438 351.238281 796.140625 351.457031 C 1095.953125 360.6875 1358.117188 569.738281 1433.679688 859.847656 C 1438.941406 880.03125 1443.316406 900.742188 1446.691406 921.410156 C 1450.015625 941.800781 1452.445312 962.621094 1453.902344 983.300781 C 1455.039062 999.351562 1455.617188 1015.71875 1455.617188 1031.945312 L 1455.617188 1752.769531 L 1468.105469 1752.769531 L 1468.105469 1031.945312 C 1468.105469 1015.421875 1467.519531 998.757812 1466.363281 982.421875 C 1464.878906 961.367188 1462.410156 940.164062 1459.015625 919.398438 C 1455.582031 898.351562 1451.121094 877.253906 1445.765625 856.699219 C 1427.042969 784.816406 1396.941406 716.707031 1356.289062 654.246094 C 1316.304688 592.816406 1267.082031 538.296875 1209.976562 492.199219 C 1152.386719 445.703125 1088.214844 408.957031 1019.25 382.96875 C 948.046875 356.140625 873.113281 341.335938 796.527344 338.984375 C 789.28125 338.765625 781.96875 338.648438 774.800781 338.648438 C 768.269531 338.648438 761.746094 338.738281 755.410156 338.914062 C 741.796875 339.285156 727.960938 340.070312 714.289062 341.25 C 703.503906 342.179688 692.703125 343.371094 682.078125 344.800781 L 682.078125 314.570312 C 693.117188 313.148438 704.273438 311.960938 715.335938 311.070312 C 728.636719 309.976562 742.226562 309.246094 755.746094 308.894531 C 761.976562 308.734375 768.390625 308.644531 774.808594 308.644531 C 781.832031 308.644531 789.019531 308.753906 796.160156 308.957031 C 1094.988281 317.644531 1360.660156 513.390625 1457.570312 796.175781 L 1457.910156 797.160156 C 1465.394531 819.101562 1471.886719 841.679688 1477.203125 864.265625 C 1482.351562 886.144531 1486.515625 908.519531 1489.582031 930.773438 C 1492.597656 952.636719 1494.632812 974.964844 1495.632812 997.128906 C 1496.132812 1008 1496.382812 1019.132812 1496.382812 1030.214844 L 1496.382812 1752.769531 L 1508.867188 1752.769531 L 1508.867188 1030.222656 C 1508.867188 1018.945312 1508.613281 1007.625 1508.109375 996.566406 C 1507.089844 974.023438 1505.023438 951.316406 1501.957031 929.074219 C 1498.84375 906.4375 1494.601562 883.671875 1489.363281 861.40625 C 1484.039062 838.761719 1477.546875 816.128906 1470.070312 794.113281 L 1469.734375 793.128906 C 1445.898438 723.242188 1411.632812 657.457031 1367.894531 597.597656 C 1324.671875 538.441406 1273.011719 486.183594 1214.359375 442.257812 C 1155.066406 397.859375 1089.738281 362.847656 1020.203125 338.183594 C 948.445312 312.742188 873.195312 298.707031 796.527344 296.476562 C 789.265625 296.269531 781.960938 296.164062 774.8125 296.164062 C 768.289062 296.164062 761.765625 296.253906 755.425781 296.414062 C 741.683594 296.769531 727.855469 297.515625 714.332031 298.625 C 703.613281 299.492188 692.796875 300.617188 682.089844 301.972656 L 682.089844 271.773438 C 693.074219 270.4375 704.21875 269.316406 715.324219 268.460938 C 728.554688 267.433594 742.152344 266.738281 755.746094 266.410156 C 762.132812 266.253906 768.550781 266.171875 774.820312 266.171875 C 781.925781 266.171875 789.113281 266.269531 796.183594 266.472656 C 1088.023438 274.492188 1353.0625 452.140625 1471.765625 719.136719 L 1472.300781 720.347656 C 1483.140625 744.839844 1492.773438 770.183594 1500.941406 795.667969 C 1508.574219 819.507812 1515.09375 843.980469 1520.3125 868.40625 C 1525.332031 891.90625 1529.285156 915.980469 1532.0625 939.953125 C 1533.804688 955.035156 1535.109375 970.332031 1535.949219 985.417969 L 1535.960938 985.597656 C 1536.429688 993.957031 1536.757812 1002.46875 1536.945312 1010.890625 C 1537.085938 1016.710938 1537.152344 1022.628906 1537.152344 1028.492188 L 1537.152344 1752.769531 L 1549.640625 1752.769531 L 1549.640625 1313.964844 C 1594.972656 1279.09375 1636.523438 1239.15625 1673.148438 1195.199219 C 1710.644531 1150.210938 1743.023438 1100.980469 1769.386719 1048.882812 C 1796.234375 995.835938 1816.90625 939.675781 1830.84375 881.953125 C 1845.179688 822.558594 1852.453125 761.171875 1852.453125 699.5 L 1852.453125 -24.773438 Z M 715.78125 652.847656 C 728.984375 650.863281 742.484375 649.539062 755.902344 648.914062 C 762.09375 648.613281 768.464844 648.464844 774.824219 648.464844 C 781.832031 648.464844 788.96875 648.652344 796.03125 649.027344 C 1005.929688 660.109375 1170.363281 833.605469 1170.363281 1044.007812 L 1170.363281 1068.605469 C 1159.253906 1071.273438 1147.953125 1073.46875 1136.683594 1075.148438 C 1123.480469 1077.136719 1109.980469 1078.457031 1096.5625 1079.082031 C 1090.363281 1079.382812 1083.996094 1079.53125 1077.640625 1079.53125 C 1070.628906 1079.53125 1063.496094 1079.34375 1056.4375 1078.972656 C 846.535156 1067.886719 682.101562 894.390625 682.101562 683.992188 L 682.101562 659.390625 C 693.203125 656.726562 704.511719 654.527344 715.78125 652.847656 Z M 715.78125 652.847656 " fill-opacity="1" fill-rule="nonzero"/></g></g></g></g><path fill="#b6956b" d="M 2100.371094 1554.875 C 2059.742188 1473.46875 2093.101562 1374.492188 2175.015625 1333.644531 C 2256.921875 1292.800781 2356.398438 1325.539062 2397.40625 1406.757812 L 2100.371094 1554.875 " fill-opacity="1" fill-rule="nonzero"/><path fill="#b6956b" d="M 2342.460938 1006.964844 C 2343.910156 1075.171875 2288.40625 1136.742188 2217.015625 1140.511719 C 2143.441406 1144.40625 2079.664062 1080.304688 2076.949219 1008.527344 C 2074.507812 944.144531 2128.945312 888.570312 2191.179688 877.035156 C 2260.097656 864.257812 2323.167969 915.25 2338.992188 980.441406 C 2341.148438 989.320312 2342.277344 998.195312 2342.460938 1006.964844 " fill-opacity="1" fill-rule="nonzero"/><g clip-path="url(#5ad1fe2a72)"><path fill="#64737a" d="M 2000.191406 1070.128906 C 2000.460938 1184.90625 2094.140625 1277.867188 2209.679688 1277.867188 C 2325.214844 1277.867188 2418.898438 1184.90625 2419.164062 1070.128906 L 2000.191406 1070.128906 " fill-opacity="1" fill-rule="nonzero"/></g></svg>